<svg xmlns="http://www.w3.org/2000/svg" id="quad-division" width="572" height="221" viewBox="0 0 572 221" style="background-color: #f5f5f5"><g/><g><path d="M 131.81172414628702 0 L 250.75676993070516 0 L 252.79161304115536 42.64398387471303 L 140.03830908688815 54.65111422948322 Z" fill="#b0cae8" stroke="white" stroke-width="5"/><path d="M 140.03830908688815 54.65111422948322 L 252.79161304115536 42.64398387471303 L 255.24244626395665 94.00582690625146 L 150.01814321087957 120.94946994325706 Z" fill="#b6b0e8" stroke="white" stroke-width="5"/><path d="M 0 135.11650642547949 L 149.94565668926958 120.46792514657551 L 159.59063146097438 184.54173241834533 L 0 180.53062534844736 Z" fill="#e8cbb0" stroke="white" stroke-width="5"/><path d="M 0 180.53062534844736 L 159.59063146097438 184.54173241834533 L 165.07866293620168 221 L 0 221 Z" fill="#ddb0e8" stroke="white" stroke-width="5"/><path d="M 0 0 L 52.818115698737124 0 L 68.08205198760871 128.46539365439233 L 0 135.11650642547949 Z" fill="#bee8b0" stroke="white" stroke-width="5"/><path d="M 436.65085262081453 0 L 494.28470259402263 0 L 521.5207362639321 90.62679416788355 L 428.4127779284336 96.77013392575681 Z" fill="#bee8b0" stroke="white" stroke-width="5"/><path d="M 494.28470259402263 0 L 572 0 L 572 87.29613078097387 L 521.5207362639321 90.62679416788355 Z" fill="#b0cae8" stroke="white" stroke-width="5"/><path d="M 150.01814321087957 120.94946994325706 L 191.97519570939613 110.20598376559427 L 223.63333059051982 221 L 165.07866293620168 221 Z" fill="#e8b0b0" stroke="white" stroke-width="5"/><path d="M 191.97519570939613 110.20598376559427 L 255.24244626395665 94.00582690625146 L 261.30222761427194 221 L 223.63333059051982 221 Z" fill="#e8cbb0" stroke="white" stroke-width="5"/><path d="M 428.4127779284336 96.77013392575681 L 502.21888348069024 91.90034630804143 L 476.7209616847186 221 L 417.8370468198122 221 Z" fill="#e8cbb0" stroke="white" stroke-width="5"/><path d="M 52.818115698737124 0 L 86.48314671080115 0 L 105.20848755502534 124.83841558104736 L 68.08205198760871 128.46539365439233 Z" fill="#e8b0d5" stroke="white" stroke-width="5"/><path d="M 86.48314671080115 0 L 131.81172414628702 0 L 149.94565668926958 120.46792514657551 L 105.20848755502534 124.83841558104736 Z" fill="#bee8b0" stroke="white" stroke-width="5"/><path d="M 259.50922190338713 183.42417598213515 L 421.7225562241148 175.35811406615463 L 417.8370468198122 221 L 261.30222761427194 221 Z" fill="#b6b0e8" stroke="white" stroke-width="5"/><path d="M 254.18974305805423 71.94444128550455 L 431.5144081983977 60.33623549434321 L 427.36965331805675 109.02339843436626 L 257.0190962472139 131.23888573419694 Z" fill="#e8b0b0" stroke="white" stroke-width="5"/><path d="M 502.21888348069024 91.90034630804143 L 572 87.29613078097387 L 572 162.59987797497976 L 491.1324849331231 148.03238030808552 Z" fill="#e6e8b0" stroke="white" stroke-width="5"/><path d="M 491.1324849331231 148.03238030808552 L 572 162.59987797497976 L 572 221 L 476.7209616847186 221 Z" fill="#bee8b0" stroke="white" stroke-width="5"/><path d="M 250.75676993070516 0 L 335.2635067430929 0 L 345.4925445624793 65.96748535366002 L 254.18974305805423 71.94444128550455 Z" fill="#e8b0d5" stroke="white" stroke-width="5"/><path d="M 335.2635067430929 0 L 436.65085262081453 0 L 431.5144081983977 60.33623549434321 L 345.4925445624793 65.96748535366002 Z" fill="#e8b0d5" stroke="white" stroke-width="5"/><path d="M 257.0190962472139 131.23888573419694 L 361.60895716590636 117.59927828657351 L 348.80843409433146 178.98377052720332 L 259.50922190338713 183.42417598213515 Z" fill="#b0e8de" stroke="white" stroke-width="5"/><path d="M 361.60895716590636 117.59927828657351 L 427.36965331805675 109.02339843436626 L 421.7225562241148 175.35811406615463 L 348.80843409433146 178.98377052720332 Z" fill="#ddb0e8" stroke="white" stroke-width="5"/></g></svg>