<svg xmlns="http://www.w3.org/2000/svg" width="100%" height="100%" viewBox="0 0 1920 978" style="background-color: #f5f5f5"><g></g><g><path d="M 1098.7904442011486 524.0005303228104 L 1456.689050495979 506.12289071053704 L 1328.947036327744 680.8318807823102 L 1023.2973827462281 694.0627508237426 Z" fill="#b0cae8"></path><path d="M 1494.4130597801388 504.2385127586523 L 1920 482.9797265909491 L 1920 655.2465583115768 L 1366.481227075896 679.2071120509213 Z" fill="#b0cae8"></path><path d="M 1010.0053176909946 724.0056098729234 L 1213.857058549699 715.1813371822235 L 1133.2973337367455 978 L 897.2535610304767 978 Z" fill="#b6b0e8"></path><path d="M 1244.9571067434256 713.835087673638 L 1574.5756506795808 699.5666595338942 L 1431.2981409718159 978 L 1163.9847267225866 978 Z" fill="#b6b0e8"></path><path d="M 0 578.886968060586 L 197.20600049710575 569.0361953996812 L 193.7168774664687 978 L 0 978 Z" fill="#ddb0e8"></path><path d="M 1608.3241089591315 698.1057664480907 L 1920 684.6140344566145 L 1920 814.578515498204 L 1554.820270666472 802.0805804574115 Z" fill="#e6e8b0"></path><path d="M 1539.9749623924367 830.9296913989651 L 1920 843.9356932451304 L 1920 978 L 1464.2948461641367 978 Z" fill="#b6b0e8"></path><path d="M 852.6476719994492 230.56063442705585 L 1125.63528607637 219.9101761368696 L 1015.5117142157217 498.7838621262277 L 712.4636316392241 513.921625476527 Z" fill="#e6e8b0"></path><path d="M 1157.6736173852573 218.66021865273143 L 1425.7481276466228 208.20144234577313 L 1248.668672939757 487.1372784071276 L 1047.691202709965 497.1764423484221 Z" fill="#e6e8b0"></path><path d="M 0 263.82620399350407 L 819.2693141931389 231.86287229163108 L 741.237529939763 389.59240885354643 L 0 370.3847729606661 Z" fill="#ddb0e8"></path><path d="M 0 399.73462191799405 L 726.9013885141164 418.57076638809787 L 678.900091831786 515.5981809540726 L 0 549.5103867046298 Z" fill="#ddb0e8"></path><path d="M 909.5671684089461 533.4525524077471 L 1065.9615237853825 525.6403903215096 L 865.1525980134472 978 L 737.1231373014873 978 Z" fill="#ddb0e8"></path><path d="M 617.9566538778795 548.0189899245263 L 877.475209781596 535.0555999209278 L 798.046121667984 739.8176792965997 L 552.6221380414221 725.0983217778281 Z" fill="#e8b0b0"></path><path d="M 542.0122888146581 753.8547147515291 L 786.9036447087914 768.542127804637 L 705.6530155033144 978 L 459.31249807417015 978 Z" fill="#b0e8de"></path><path d="M 0 0 L 841.8150449651604 0 L 886.711192385831 82.71544268618581 L 0 117.08877173842428 Z" fill="#e8b0b0"></path><path d="M 875.1983476575012 0 L 1920 0 L 1920 42.660037391761186 L 919.4065589883932 81.44800791783743 Z" fill="#e8b0b0"></path><path d="M 226.5595778619378 567.5699346536778 L 586.0961539478693 549.6104756850111 L 502.6717333848508 775.719760561732 L 225.2378037470856 722.4964781104951 Z" fill="#b0e8de"></path><path d="M 224.98333794581526 752.32268409819 L 492.37777561551906 803.6199774774317 L 428.03918666883783 978 L 223.05794525446228 978 Z" fill="#e8b0d5"></path><path d="M 0 146.45080840294298 L 614.5383461162422 122.62825042954533 L 1108.4896337575321 191.21678301983923 L 0 234.4638828905016 Z" fill="#b0cae8"></path><path d="M 781.3055913196797 116.16352387174769 L 1920 72.02207405627989 L 1920 159.55616231019852 L 1275.0229808871059 184.71957810625344 Z" fill="#b0cae8"></path><path d="M 1461.3837391165553 206.81113899853463 L 1920 188.91848341320107 L 1920 340.7758364346092 L 1390.5287718530294 318.42199507141135 Z" fill="#ddb0e8"></path><path d="M 1372.3726198910826 347.02159424877556 L 1920 370.1419734692691 L 1920 453.603145234993 L 1284.5598199853948 485.34445501841503 Z" fill="#e8cbb0"></path></g></svg>
